<?xml version="1.0" encoding="UTF-8"?>
<!DOCTYPE svg PUBLIC "-//W3C//DTD SVG 1.1//EN" "http://www.w3.org/Graphics/SVG/1.1/DTD/svg11.dtd">
<svg xmlns="http://www.w3.org/2000/svg" version="1.1" width="265px" height="264px" style="shape-rendering:geometricPrecision; text-rendering:geometricPrecision; image-rendering:optimizeQuality; fill-rule:evenodd; clip-rule:evenodd" xmlns:xlink="http://www.w3.org/1999/xlink">
<g><path style="opacity:0.871" fill="#7a1415" d="M 137.5,12.5 C 134.863,11.2181 132.196,9.88474 129.5,8.5C 129.843,6.77484 130.843,6.27484 132.5,7C 134.373,8.70383 136.04,10.5372 137.5,12.5 Z"/></g>
<g><path style="opacity:0.063" fill="#340b07" d="M 127.5,10.5 C 126.833,11.8333 125.833,12.8333 124.5,13.5C 124.5,11.5 125.5,10.5 127.5,10.5 Z"/></g>
<g><path style="opacity:0.91" fill="#691313" d="M 124.5,13.5 C 123.199,14.8816 122.366,16.5483 122,18.5C 120.53,19.2666 119.03,19.9332 117.5,20.5C 119.112,18.7024 120.612,16.7024 122,14.5C 122.671,13.7476 123.504,13.4142 124.5,13.5 Z"/></g>
<g><path style="opacity:0.839" fill="#851012" d="M 139.5,14.5 C 142.167,16.5 144.5,18.8333 146.5,21.5C 144.42,20.9556 142.42,20.1223 140.5,19C 139.62,17.6439 139.286,16.1439 139.5,14.5 Z"/></g>
<g><path style="opacity:0.855" fill="#7f1212" d="M 146.5,21.5 C 148.167,22.5 149.5,23.8333 150.5,25.5C 147.858,25.5123 146.525,24.179 146.5,21.5 Z"/></g>
<g><path style="opacity:1" fill="#a11214" d="M 117.5,20.5 C 117.509,22.3084 117.009,23.9751 116,25.5C 113.372,27.1255 111.039,29.1255 109,31.5C 109,32.8333 109,34.1667 109,35.5C 106.861,35.7777 104.695,35.7777 102.5,35.5C 107.14,30.1937 112.14,25.1937 117.5,20.5 Z"/></g>
<g><path style="opacity:1" fill="#cb1e1d" d="M 129.5,8.5 C 132.196,9.88474 134.863,11.2181 137.5,12.5C 138.5,12.8333 139.167,13.5 139.5,14.5C 139.286,16.1439 139.62,17.6439 140.5,19C 142.42,20.1223 144.42,20.9556 146.5,21.5C 146.525,24.179 147.858,25.5123 150.5,25.5C 151.167,28.8333 153.167,30.8333 156.5,31.5C 156.343,32.8734 156.51,34.2068 157,35.5C 160.129,37.6429 163.296,39.6429 166.5,41.5C 166.525,44.179 167.858,45.5123 170.5,45.5C 170.525,48.179 171.858,49.5123 174.5,49.5C 174.5,51.5 175.5,52.5 177.5,52.5C 179.833,54.1667 181.833,56.1667 183.5,58.5C 183.5,60.5 184.5,61.5 186.5,61.5C 188.167,62.5 189.5,63.8333 190.5,65.5C 190.833,67.8333 192.167,69.1667 194.5,69.5C 194.525,72.179 195.858,73.5123 198.5,73.5C 198.525,76.179 199.858,77.5123 202.5,77.5C 202.833,80.5 204.5,82.1667 207.5,82.5C 207.525,85.179 208.858,86.5123 211.5,86.5C 212.167,89.8333 214.167,91.8333 217.5,92.5C 218.5,92.8333 219.167,93.5 219.5,94.5C 219.343,95.8734 219.51,97.2068 220,98.5C 222.251,99.4123 224.417,100.412 226.5,101.5C 226.525,104.179 227.858,105.512 230.5,105.5C 230.833,108.5 232.5,110.167 235.5,110.5C 236.479,133.455 236.813,156.455 236.5,179.5C 235.167,179.5 233.833,179.5 232.5,179.5C 228.546,175.188 223.88,171.855 218.5,169.5C 216.704,167.1 214.37,165.433 211.5,164.5C 209.704,162.1 207.37,160.433 204.5,159.5C 199.393,154.73 193.727,150.73 187.5,147.5C 184.725,144.395 181.392,142.062 177.5,140.5C 175.704,138.1 173.37,136.433 170.5,135.5C 168.704,133.1 166.37,131.433 163.5,130.5C 158.393,125.73 152.727,121.73 146.5,118.5C 144.704,116.1 142.37,114.433 139.5,113.5C 138.027,111.605 136.36,109.939 134.5,108.5C 131.976,107.2 129.309,107.2 126.5,108.5C 124.492,112.108 121.992,112.442 119,109.5C 118.027,111.392 117.36,113.392 117,115.5C 115.644,116.38 114.144,116.714 112.5,116.5C 112.5,117.5 112.5,118.5 112.5,119.5C 111.178,119.67 110.011,119.337 109,118.5C 108.506,120.134 108.34,121.801 108.5,123.5C 106.473,123.338 104.473,123.505 102.5,124C 103.337,125.011 103.67,126.178 103.5,127.5C 103.5,128.167 103.167,128.5 102.5,128.5C 100.83,128.249 99.3297,127.582 98,126.5C 95.8913,127.035 95.3913,128.035 96.5,129.5C 95.4783,130.354 94.6449,131.354 94,132.5C 89.8592,131.142 88.6925,132.476 90.5,136.5C 86.3573,136.798 83.024,138.632 80.5,142C 79.552,142.483 78.552,142.649 77.5,142.5C 77.5,143.5 77.5,144.5 77.5,145.5C 75.8333,145.5 74.1667,145.5 72.5,145.5C 72.5,146.833 72.5,148.167 72.5,149.5C 71.2921,148.766 69.9587,148.433 68.5,148.5C 68.5,149.5 68.5,150.5 68.5,151.5C 63.0145,152.571 59.0145,155.571 56.5,160.5C 54.8762,160.36 53.7096,161.027 53,162.5C 48.0707,159.254 44.5707,160.421 42.5,166C 43.3366,167.011 43.67,168.178 43.5,169.5C 41.1789,169.229 39.1789,169.896 37.5,171.5C 36.8076,170.975 36.3076,170.308 36,169.5C 35.7978,171.256 35.2978,172.922 34.5,174.5C 31.6368,175.409 29.3035,177.076 27.5,179.5C 26.1876,156.464 26.1876,133.464 27.5,110.5C 30.1667,107.167 33.1667,104.167 36.5,101.5C 42.0802,100.289 45.4135,96.9553 46.5,91.5C 50.1667,87.1667 54.1667,83.1667 58.5,79.5C 61.5,79.8333 62.8333,78.5 62.5,75.5C 64.5,75.5 65.5,74.5 65.5,72.5C 69.8333,67.5 74.5,62.8333 79.5,58.5C 83.7949,58.2052 86.1283,55.8719 86.5,51.5C 89.6676,50.1362 93.0009,49.3028 96.5,49C 95.3166,46.8449 95.6499,44.8449 97.5,43C 99.8098,42.5034 102.143,42.3367 104.5,42.5C 104.5,41.5 104.5,40.5 104.5,39.5C 103.5,39.5 102.5,39.5 101.5,39.5C 101.433,38.0413 101.766,36.7079 102.5,35.5C 104.695,35.7777 106.861,35.7777 109,35.5C 109,34.1667 109,32.8333 109,31.5C 111.039,29.1255 113.372,27.1255 116,25.5C 117.009,23.9751 117.509,22.3084 117.5,20.5C 119.03,19.9332 120.53,19.2666 122,18.5C 122.366,16.5483 123.199,14.8816 124.5,13.5C 125.833,12.8333 126.833,11.8333 127.5,10.5C 127.833,9.5 128.5,8.83333 129.5,8.5 Z"/></g>
<g><path style="opacity:0.325" fill="#690e10" d="M 150.5,25.5 C 152.833,27.1667 154.833,29.1667 156.5,31.5C 153.167,30.8333 151.167,28.8333 150.5,25.5 Z"/></g>
<g><path style="opacity:0.988" fill="#831415" d="M 156.5,31.5 C 160.167,34.5 163.5,37.8333 166.5,41.5C 163.296,39.6429 160.129,37.6429 157,35.5C 156.51,34.2068 156.343,32.8734 156.5,31.5 Z"/></g>
<g><path style="opacity:0.906" fill="#6a1213" d="M 102.5,35.5 C 101.766,36.7079 101.433,38.0413 101.5,39.5C 100.5,39.5 99.5,39.5 98.5,39.5C 99.1667,37.5 100.5,36.1667 102.5,35.5 Z"/></g>
<g><path style="opacity:0.847" fill="#7c1515" d="M 166.5,41.5 C 168.167,42.5 169.5,43.8333 170.5,45.5C 167.858,45.5123 166.525,44.179 166.5,41.5 Z"/></g>
<g><path style="opacity:1" fill="#b11718" d="M 98.5,39.5 C 99.5,39.5 100.5,39.5 101.5,39.5C 102.5,39.5 103.5,39.5 104.5,39.5C 104.5,40.5 104.5,41.5 104.5,42.5C 102.143,42.3367 99.8098,42.5034 97.5,43C 95.6499,44.8449 95.3166,46.8449 96.5,49C 93.0009,49.3028 89.6676,50.1362 86.5,51.5C 90.1667,47.1667 94.1667,43.1667 98.5,39.5 Z"/></g>
<g><path style="opacity:0.859" fill="#7d1414" d="M 170.5,45.5 C 172.167,46.5 173.5,47.8333 174.5,49.5C 171.858,49.5123 170.525,48.179 170.5,45.5 Z"/></g>
<g><path style="opacity:0.322" fill="#5a1113" d="M 174.5,49.5 C 175.833,50.1667 176.833,51.1667 177.5,52.5C 175.5,52.5 174.5,51.5 174.5,49.5 Z"/></g>
<g><path style="opacity:0.902" fill="#910e10" d="M 86.5,51.5 C 86.1283,55.8719 83.7949,58.2052 79.5,58.5C 81.5,55.8333 83.8333,53.5 86.5,51.5 Z"/></g>
<g><path style="opacity:0.337" fill="#5f1011" d="M 183.5,58.5 C 184.833,59.1667 185.833,60.1667 186.5,61.5C 184.5,61.5 183.5,60.5 183.5,58.5 Z"/></g>
<g><path style="opacity:0.337" fill="#5d1011" d="M 190.5,65.5 C 192.167,66.5 193.5,67.8333 194.5,69.5C 192.167,69.1667 190.833,67.8333 190.5,65.5 Z"/></g>
<g><path style="opacity:0.859" fill="#7d1111" d="M 194.5,69.5 C 196.167,70.5 197.5,71.8333 198.5,73.5C 195.858,73.5123 194.525,72.179 194.5,69.5 Z"/></g>
<g><path style="opacity:0.376" fill="#470805" d="M 65.5,72.5 C 65.5,74.5 64.5,75.5 62.5,75.5C 63.1667,74.1667 64.1667,73.1667 65.5,72.5 Z"/></g>
<g><path style="opacity:0.839" fill="#7f1213" d="M 198.5,73.5 C 200.167,74.5 201.5,75.8333 202.5,77.5C 199.858,77.5123 198.525,76.179 198.5,73.5 Z"/></g>
<g><path style="opacity:0.906" fill="#7e0c0e" d="M 62.5,75.5 C 62.8333,78.5 61.5,79.8333 58.5,79.5C 59.5,77.8333 60.8333,76.5 62.5,75.5 Z"/></g>
<g><path style="opacity:0.322" fill="#6d1113" d="M 202.5,77.5 C 204.5,78.8333 206.167,80.5 207.5,82.5C 204.5,82.1667 202.833,80.5 202.5,77.5 Z"/></g>
<g><path style="opacity:0.824" fill="#810f12" d="M 207.5,82.5 C 209.167,83.5 210.5,84.8333 211.5,86.5C 208.858,86.5123 207.525,85.179 207.5,82.5 Z"/></g>
<g><path style="opacity:0.318" fill="#6c1314" d="M 211.5,86.5 C 213.833,88.1667 215.833,90.1667 217.5,92.5C 214.167,91.8333 212.167,89.8333 211.5,86.5 Z"/></g>
<g><path style="opacity:1" fill="#930d0e" d="M 46.5,91.5 C 45.4135,96.9553 42.0802,100.289 36.5,101.5C 39.5,97.8333 42.8333,94.5 46.5,91.5 Z"/></g>
<g><path style="opacity:0.988" fill="#861716" d="M 219.5,94.5 C 222.167,96.5 224.5,98.8333 226.5,101.5C 224.417,100.412 222.251,99.4123 220,98.5C 219.51,97.2068 219.343,95.8734 219.5,94.5 Z"/></g>
<g><path style="opacity:0.843" fill="#7b1716" d="M 226.5,101.5 C 228.167,102.5 229.5,103.833 230.5,105.5C 227.858,105.512 226.525,104.179 226.5,101.5 Z"/></g>
<g><path style="opacity:0.035" fill="#3c110e" d="M 131.5,108.5 C 132.5,108.5 133.5,108.5 134.5,108.5C 136.36,109.939 138.027,111.605 139.5,113.5C 136.489,112.331 133.822,110.664 131.5,108.5 Z"/></g>
<g><path style="opacity:0.302" fill="#701818" d="M 230.5,105.5 C 232.5,106.833 234.167,108.5 235.5,110.5C 232.5,110.167 230.833,108.5 230.5,105.5 Z"/></g>
<g><path style="opacity:0.043" fill="#401312" d="M 139.5,113.5 C 142.37,114.433 144.704,116.1 146.5,118.5C 143.63,117.567 141.296,115.9 139.5,113.5 Z"/></g>
<g><path style="opacity:0.095" fill="#150403" d="M 25.5,112.5 C 24.8436,135.858 25.5103,158.858 27.5,181.5C 26.791,182.404 25.791,182.737 24.5,182.5C 24.1691,158.994 24.5025,135.661 25.5,112.5 Z"/></g>
<g><path style="opacity:0.998" fill="#9a1816" d="M 134.5,108.5 C 133.5,108.5 132.5,108.5 131.5,108.5C 122.149,114.859 112.815,121.192 103.5,127.5C 103.67,126.178 103.337,125.011 102.5,124C 104.473,123.505 106.473,123.338 108.5,123.5C 108.34,121.801 108.506,120.134 109,118.5C 110.011,119.337 111.178,119.67 112.5,119.5C 112.5,118.5 112.5,117.5 112.5,116.5C 114.144,116.714 115.644,116.38 117,115.5C 117.36,113.392 118.027,111.392 119,109.5C 121.992,112.442 124.492,112.108 126.5,108.5C 129.309,107.2 131.976,107.2 134.5,108.5 Z"/></g>
<g><path style="opacity:0.161" fill="#3c120d" d="M 146.5,118.5 C 152.727,121.73 158.393,125.73 163.5,130.5C 157.273,127.27 151.607,123.27 146.5,118.5 Z"/></g>
<g><path style="opacity:0.192" fill="#41120d" d="M 163.5,130.5 C 166.37,131.433 168.704,133.1 170.5,135.5C 167.63,134.567 165.296,132.9 163.5,130.5 Z"/></g>
<g><path style="opacity:1" fill="#101010" d="M 161.5,145.5 C 162.496,145.586 163.329,145.252 164,144.5C 164.309,145.766 164.809,146.933 165.5,148C 171.973,151.987 177.973,156.487 183.5,161.5C 183.709,162.922 184.209,164.255 185,165.5C 185.333,165.167 185.667,164.833 186,164.5C 189.067,167.906 192.401,170.906 196,173.5C 196.333,173.167 196.667,172.833 197,172.5C 197.249,173.624 197.749,174.624 198.5,175.5C 201.947,176.639 204.781,178.639 207,181.5C 207.333,181.167 207.667,180.833 208,180.5C 209.049,182.107 210.549,182.773 212.5,182.5C 212.281,183.675 212.614,184.675 213.5,185.5C 216.349,186.677 218.682,188.51 220.5,191C 222.345,192.128 224.345,192.628 226.5,192.5C 226.5,193.5 226.5,194.5 226.5,195.5C 230.405,195.613 233.071,197.446 234.5,201C 224.318,217.859 214.318,234.859 204.5,252C 155.83,252.833 107.163,252.667 58.5,251.5C 47.7909,233.799 37.7909,216.632 28.5,200C 31.0324,197.049 34.0324,194.549 37.5,192.5C 38.086,192.709 38.586,193.043 39,193.5C 40.3188,190.898 42.1521,188.732 44.5,187C 48.743,184.575 53.0763,182.408 57.5,180.5C 57.9209,178.09 59.2542,176.257 61.5,175C 67.4189,172.471 72.0855,169.137 75.5,165C 87.2319,158.845 97.8985,151.178 107.5,142C 113.997,138.689 119.664,135.022 124.5,131C 125.448,130.517 126.448,130.351 127.5,130.5C 127.857,126.605 129.857,125.605 133.5,127.5C 141.893,134.274 150.727,140.607 160,146.5C 160.383,145.944 160.883,145.611 161.5,145.5 Z"/></g>
<g><path style="opacity:0.192" fill="#40120e" d="M 170.5,135.5 C 173.37,136.433 175.704,138.1 177.5,140.5C 174.63,139.567 172.296,137.9 170.5,135.5 Z"/></g>
<g><path style="opacity:0.957" fill="#911614" d="M 102.5,128.5 C 92.8872,135.98 82.8872,142.98 72.5,149.5C 72.5,148.167 72.5,146.833 72.5,145.5C 74.1667,145.5 75.8333,145.5 77.5,145.5C 77.5,144.5 77.5,143.5 77.5,142.5C 78.552,142.649 79.552,142.483 80.5,142C 83.024,138.632 86.3573,136.798 90.5,136.5C 88.6925,132.476 89.8592,131.142 94,132.5C 94.6449,131.354 95.4783,130.354 96.5,129.5C 95.3913,128.035 95.8913,127.035 98,126.5C 99.3297,127.582 100.83,128.249 102.5,128.5 Z"/></g>
<g><path style="opacity:0.122" fill="#41120f" d="M 177.5,140.5 C 181.392,142.062 184.725,144.395 187.5,147.5C 183.608,145.938 180.275,143.605 177.5,140.5 Z"/></g>
<g><path style="opacity:0.176" fill="#40110d" d="M 187.5,147.5 C 193.727,150.73 199.393,154.73 204.5,159.5C 198.273,156.27 192.607,152.27 187.5,147.5 Z"/></g>
<g><path style="opacity:0.82" fill="#8d1313" d="M 72.5,149.5 C 67.7217,153.94 62.3883,157.607 56.5,160.5C 59.0145,155.571 63.0145,152.571 68.5,151.5C 68.5,150.5 68.5,149.5 68.5,148.5C 69.9587,148.433 71.2921,148.766 72.5,149.5 Z"/></g>
<g><path style="opacity:1" fill="#a21818" d="M 27.5,110.5 C 26.1876,133.464 26.1876,156.464 27.5,179.5C 29.3035,177.076 31.6368,175.409 34.5,174.5C 35.2978,172.922 35.7978,171.256 36,169.5C 36.3076,170.308 36.8076,170.975 37.5,171.5C 39.1789,169.896 41.1789,169.229 43.5,169.5C 43.67,168.178 43.3366,167.011 42.5,166C 44.5707,160.421 48.0707,159.254 53,162.5C 53.7096,161.027 54.8762,160.36 56.5,160.5C 47.1365,167.855 37.4699,174.855 27.5,181.5C 25.5103,158.858 24.8436,135.858 25.5,112.5C 25.8333,111.5 26.5,110.833 27.5,110.5 Z"/></g>
<g><path style="opacity:0.125" fill="#3e120d" d="M 204.5,159.5 C 207.37,160.433 209.704,162.1 211.5,164.5C 208.63,163.567 206.296,161.9 204.5,159.5 Z"/></g>
<g><path style="opacity:0.593" fill="#891b18" d="M 235.5,110.5 C 236.117,110.611 236.617,110.944 237,111.5C 237.182,134.364 237.682,157.197 238.5,180C 236.424,183.275 234.424,183.109 232.5,179.5C 233.833,179.5 235.167,179.5 236.5,179.5C 236.813,156.455 236.479,133.455 235.5,110.5 Z"/></g>
<g><path style="opacity:0.149" fill="#41120d" d="M 211.5,164.5 C 214.37,165.433 216.704,167.1 218.5,169.5C 215.63,168.567 213.296,166.9 211.5,164.5 Z"/></g>
<g><path style="opacity:0.184" fill="#40110f" d="M 218.5,169.5 C 223.88,171.855 228.546,175.188 232.5,179.5C 227.473,176.655 222.806,173.321 218.5,169.5 Z"/></g>
<g><path style="opacity:0.256" fill="#020202" d="M 161.5,145.5 C 160.883,145.611 160.383,145.944 160,146.5C 150.727,140.607 141.893,134.274 133.5,127.5C 129.857,125.605 127.857,126.605 127.5,130.5C 126.448,130.351 125.448,130.517 124.5,131C 119.664,135.022 113.997,138.689 107.5,142C 97.8985,151.178 87.2319,158.845 75.5,165C 72.0855,169.137 67.4189,172.471 61.5,175C 59.2542,176.257 57.9209,178.09 57.5,180.5C 53.0763,182.408 48.743,184.575 44.5,187C 42.1521,188.732 40.3188,190.898 39,193.5C 38.586,193.043 38.086,192.709 37.5,192.5C 34.0324,194.549 31.0324,197.049 28.5,200C 37.7909,216.632 47.7909,233.799 58.5,251.5C 107.163,252.667 155.83,252.833 204.5,252C 214.318,234.859 224.318,217.859 234.5,201C 233.071,197.446 230.405,195.613 226.5,195.5C 226.5,194.5 226.5,193.5 226.5,192.5C 224.345,192.628 222.345,192.128 220.5,191C 218.682,188.51 216.349,186.677 213.5,185.5C 212.614,184.675 212.281,183.675 212.5,182.5C 210.549,182.773 209.049,182.107 208,180.5C 207.667,180.833 207.333,181.167 207,181.5C 204.781,178.639 201.947,176.639 198.5,175.5C 197.749,174.624 197.249,173.624 197,172.5C 196.667,172.833 196.333,173.167 196,173.5C 192.401,170.906 189.067,167.906 186,164.5C 185.667,164.833 185.333,165.167 185,165.5C 184.209,164.255 183.709,162.922 183.5,161.5C 196.838,170.179 208.671,178.512 219,186.5C 219.414,186.043 219.914,185.709 220.5,185.5C 221.262,186.628 221.929,187.795 222.5,189C 226.597,191.548 230.097,194.048 233,196.5C 233.324,194.431 234.158,194.098 235.5,195.5C 236.254,198.613 236.587,201.613 236.5,204.5C 235.5,206.813 234.166,208.813 232.5,210.5C 232.167,209.167 231.833,209.167 231.5,210.5C 230.662,210.842 230.328,211.508 230.5,212.5C 229.167,212.833 229.167,213.167 230.5,213.5C 229.833,214.5 229.167,215.5 228.5,216.5C 227.711,216.783 227.044,217.283 226.5,218C 227.517,219.049 227.684,220.216 227,221.5C 224.728,222.216 222.895,224.05 221.5,227C 222.774,227.977 222.774,228.811 221.5,229.5C 221.167,228.167 220.833,228.167 220.5,229.5C 218.443,231.573 217.609,233.906 218,236.5C 216.912,238.69 215.746,240.023 214.5,240.5C 212.618,241.221 212.285,242.221 213.5,243.5C 212.167,245.167 210.833,246.833 209.5,248.5C 208.167,248.833 208.167,249.167 209.5,249.5C 209.291,250.922 208.791,252.255 208,253.5C 206.443,252.795 205.277,253.461 204.5,255.5C 200.667,255.833 196.833,256.167 193,256.5C 148.32,256.142 103.486,255.975 58.5,256C 54.16,251.982 50.9933,247.149 49,241.5C 41.0292,230.366 33.6959,217.699 27,203.5C 26.6667,203.833 26.3333,204.167 26,204.5C 25.2035,201.279 25.7035,198.279 27.5,195.5C 29.7177,196.188 31.2177,195.188 32,192.5C 33.5581,193.345 34.5581,192.679 35,190.5C 37.2276,191.299 38.5609,190.299 39,187.5C 39.3333,187.833 39.6667,188.167 40,188.5C 44.2747,186.174 48.2747,182.841 52,178.5C 53.5581,179.345 54.5581,178.679 55,176.5C 55.3333,176.833 55.6667,177.167 56,177.5C 69.1336,167.533 82.9669,157.7 97.5,148C 100.376,145.825 102.876,143.325 105,140.5C 105.333,140.833 105.667,141.167 106,141.5C 112.471,137.041 118.971,132.541 125.5,128C 126.191,126.933 126.691,125.766 127,124.5C 130,123.167 133,123.167 136,124.5C 138.775,128.736 142.442,132.07 147,134.5C 147.333,134.167 147.667,133.833 148,133.5C 148.785,135.286 149.951,136.786 151.5,138C 155.349,140.043 158.683,142.543 161.5,145.5 Z"/></g>
<g><path style="opacity:0.004" fill="#000000" d="M 237.5,200.5 C 238.833,201.167 238.833,201.167 237.5,200.5 Z"/></g>
<g><path style="opacity:0.004" fill="#000000" d="M 231.5,210.5 C 231.833,210.5 232.167,210.5 232.5,210.5C 232.672,211.492 232.338,212.158 231.5,212.5C 231.5,211.833 231.5,211.167 231.5,210.5 Z"/></g>
<g><path style="opacity:0.004" fill="#000000" d="M 230.5,212.5 C 230.833,212.5 231.167,212.5 231.5,212.5C 231.315,213.17 230.981,213.17 230.5,212.5 Z"/></g>
<g><path style="opacity:0.004" fill="#000000" d="M 228.5,216.5 C 229.833,217.167 229.833,217.167 228.5,216.5 Z"/></g>
<g><path style="opacity:0.006" fill="#000000" d="M 220.5,229.5 C 220.833,229.5 221.167,229.5 221.5,229.5C 221.167,232.167 220.833,232.167 220.5,229.5 Z"/></g>
<g><path style="opacity:0.004" fill="#000000" d="M 219.5,232.5 C 220.833,233.167 220.833,233.167 219.5,232.5 Z"/></g>
<g><path style="opacity:0.004" fill="#000000" d="M 214.5,240.5 C 215.833,241.167 215.833,241.167 214.5,240.5 Z"/></g>
<g><path style="opacity:0.004" fill="#000000" d="M 213.5,242.5 C 214.833,243.167 214.833,243.167 213.5,242.5 Z"/></g>
<g><path style="opacity:0.004" fill="#000000" d="M 209.5,248.5 C 210.833,249.167 210.833,249.167 209.5,248.5 Z"/></g>
</svg>
