<?xml version="1.0" standalone="no"?>
<!DOCTYPE svg PUBLIC "-//W3C//DTD SVG 20010904//EN"
 "http://www.w3.org/TR/2001/REC-SVG-20010904/DTD/svg10.dtd">
<svg version="1.0" xmlns="http://www.w3.org/2000/svg"
 width="265.000000pt" height="264.000000pt" viewBox="0 0 265.000000 264.000000"
 preserveAspectRatio="xMidYMid meet">

<g transform="translate(0.000000,264.000000) scale(0.100000,-0.100000)"
fill="#000000" stroke="none">
<path d="M787 2022 l-527 -527 0 -334 c0 -264 3 -332 13 -328 12 4 381 263
840 588 l208 147 502 -355 c276 -196 509 -362 518 -369 8 -8 20 -14 25 -14 5
0 8 136 6 337 l-2 338 -523 523 c-287 287 -524 522 -527 522 -3 0 -242 -237
-533 -528z"/>
<path d="M1020 1169 c-162 -117 -394 -282 -516 -368 -121 -86 -222 -160 -224
-164 -2 -5 66 -128 151 -273 l153 -264 736 0 736 0 156 267 c155 265 156 267
135 282 -12 9 -246 176 -520 373 -274 197 -501 358 -505 358 -4 0 -140 -95
-302 -211z"/>
</g>
</svg>
